<svg version="1.1" id="Layer_1" xmlns="http://www.w3.org/2000/svg" xmlns:xlink="http://www.w3.org/1999/xlink" x="0px" y="0px"
	 width="100%" viewBox="0 0 370 400" enable-background="new 0 0 370 400" xml:space="preserve">
<path fill="#33C3FF" opacity="1.000000" stroke="none" 
	d="
M0.999999,301.000000 
	C1.000000,234.645767 1.000000,168.291550 1.254673,101.799881 
	C5.845237,94.330322 13.035507,90.718849 20.214489,86.910507 
	C34.384922,79.393295 48.407501,71.596138 62.459076,63.856380 
	C84.874191,51.509892 107.251076,39.093964 129.667328,26.749537 
	C144.145355,18.776615 158.670975,10.890080 173.139053,2.899286 
	C173.626892,2.629855 173.721893,1.649160 174.000000,0.999998 
	C181.687576,1.000000 189.375168,1.000000 197.198975,1.263370 
	C204.622818,5.693455 211.860489,9.950555 219.207291,14.010144 
	C242.315521,26.778967 265.456665,39.488361 288.600677,52.192322 
	C307.918701,62.796165 327.339539,73.216011 346.552216,84.006935 
	C355.172241,88.848434 365.109924,92.085281 370.355316,101.570175 
	C370.570221,101.380127 370.785126,101.190071 371.000000,101.000000 
	C371.000000,167.354233 371.000000,233.708450 370.745270,300.200195 
	C368.154938,302.941833 366.276581,306.318024 363.405670,308.018341 
	C350.028870,315.940948 336.403473,323.446655 322.819061,331.015411 
	C297.773071,344.970184 272.726471,358.924469 247.615784,372.762146 
	C232.148987,381.285370 216.550293,389.569061 201.055389,398.041840 
	C199.856262,398.697510 199.010178,399.998810 198.000000,401.000000 
	C190.312424,401.000000 182.624832,401.000000 174.801086,400.736389 
	C163.107788,393.984497 151.600189,387.405975 139.981384,381.030151 
	C124.500046,372.534729 108.885414,364.282013 93.412697,355.771149 
	C71.271416,343.592255 49.095058,331.469269 27.163446,318.920837 
	C18.194822,313.789307 7.484995,310.814819 2.018822,300.732025 
	C1.979109,300.658752 1.352546,300.903656 0.999999,301.000000 
M254.231903,157.532318 
	C254.231903,153.662613 254.231903,149.792908 254.231903,145.923203 
	C256.170258,147.358704 257.059357,148.906464 257.884399,150.487686 
	C264.966797,164.061569 271.873291,177.730835 279.187622,191.178406 
	C282.394012,197.073456 287.743134,199.190491 292.954559,197.677994 
	C297.222015,196.439468 299.039398,193.007217 299.050232,185.837463 
	C299.078949,166.858932 299.070526,147.880310 299.047546,128.901764 
	C299.045807,127.471764 298.811920,126.042038 298.688385,124.639801 
	C294.224640,124.639801 290.191681,124.639801 285.653015,124.639801 
	C285.653015,141.776855 285.653015,158.468491 285.653015,175.160126 
	C283.959351,174.022629 283.123962,172.672928 282.388336,171.270874 
	C275.274719,157.712906 268.346832,144.053757 261.000702,130.623230 
	C257.630402,124.461464 252.141235,122.182938 246.843689,124.018776 
	C241.057037,126.024117 240.980331,131.065552 240.974609,135.993866 
	C240.953003,154.639450 240.958099,173.285080 240.975464,191.930679 
	C240.976959,193.538803 241.142059,195.146759 241.234146,196.808701 
	C245.730240,196.808701 249.774353,196.808701 254.232056,196.808701 
	C254.232056,183.775726 254.232056,171.148819 254.231903,157.532318 
M103.766685,126.911369 
	C103.766685,150.154572 103.766685,173.397766 103.766685,196.787048 
	C108.884277,196.787048 113.414436,196.787048 118.496185,196.787048 
	C118.496185,187.617020 118.496185,178.864395 118.496185,170.145386 
	C124.200027,168.979050 128.104752,169.580750 130.568207,175.348145 
	C133.301544,181.747437 137.055084,187.720490 140.519928,193.790344 
	C141.269699,195.103836 142.616776,196.907852 143.800507,196.996704 
	C148.649963,197.360718 153.542664,197.148682 159.335037,197.148682 
	C153.554047,186.987167 148.323944,177.794006 143.517197,169.344955 
	C147.271774,165.809341 151.568680,163.239563 153.700165,159.451370 
	C158.272415,151.325378 158.338028,142.304626 153.912354,134.087463 
	C152.109253,130.739609 148.387009,127.379402 144.821930,126.212662 
	C131.398926,121.819725 117.688881,122.877159 103.766685,126.911369 
M168.815140,153.358322 
	C169.191772,161.478348 168.871109,169.706039 170.104614,177.693741 
	C172.070618,190.424835 179.122818,196.593018 191.926727,197.714767 
	C196.685089,198.131653 201.580444,197.888718 206.331848,197.294830 
	C216.582306,196.013626 223.662369,190.047882 224.898849,179.940353 
	C226.278137,168.665543 226.750504,157.069061 225.780792,145.770248 
	C224.531845,131.217926 216.840759,124.908951 202.166809,123.708992 
	C179.871750,121.885811 170.389374,130.068375 168.815140,153.358322 
M85.092758,124.192360 
	C81.163849,124.192360 77.234947,124.192360 73.235962,124.192360 
	C73.235962,148.870407 73.235962,172.767288 73.235962,196.894669 
	C78.125954,196.894669 82.683266,196.894669 87.218933,196.894669 
	C87.469063,196.127060 87.749352,195.667267 87.750145,195.207001 
	C87.789352,172.561218 87.828064,149.915298 87.744949,127.269859 
	C87.741241,126.260498 86.605446,125.255295 85.092758,124.192360 
M121.286781,278.025848 
	C121.808685,276.278870 122.774437,274.534424 122.784378,272.784515 
	C122.893112,253.642273 122.858650,234.499161 122.841591,215.356308 
	C122.840157,213.745850 122.683197,212.135529 122.577629,210.128479 
	C120.523689,210.244064 118.964844,210.331787 116.765213,210.455582 
	C116.765213,220.758804 116.765213,230.634979 116.765213,240.538589 
	C103.851433,240.538589 91.609131,240.538589 78.698326,240.538589 
	C78.698326,230.343079 78.698326,220.446564 78.698326,210.136414 
	C76.445862,210.247391 74.886848,210.324188 73.176682,210.408447 
	C73.176682,233.094666 73.176682,255.320572 73.176682,277.805817 
	C75.037048,277.805817 76.597229,277.805817 78.842529,277.805817 
	C78.842529,267.144379 78.842529,256.758148 78.842529,246.340393 
	C91.890419,246.340393 104.248077,246.340393 116.974800,246.340393 
	C116.974800,255.902054 117.019363,265.036713 116.945534,274.170380 
	C116.925415,276.658997 117.243881,278.540802 121.286781,278.025848 
M163.502960,258.015137 
	C166.669006,258.015137 169.867874,258.303345 172.993423,257.947540 
	C177.676331,257.414490 180.436356,258.889160 181.590439,263.719910 
	C182.435562,267.257477 184.267242,270.548523 185.293854,274.056396 
	C186.444016,277.986389 188.718079,278.976990 192.736771,277.488342 
	C192.127792,275.744324 191.572067,274.035309 190.938202,272.355804 
	C185.174194,257.083649 179.400604,241.815063 173.620392,226.549011 
	C171.910126,222.032028 170.349060,217.444290 168.341415,213.062256 
	C167.682037,211.623062 165.739456,209.729599 164.544952,209.837051 
	C162.992310,209.976715 161.569977,211.870163 160.162094,213.090210 
	C159.827133,213.380478 159.767960,213.992371 159.589371,214.459167 
	C151.971527,234.372574 144.348862,254.284119 136.753372,274.206024 
	C136.356140,275.247955 136.190689,276.378235 135.927322,277.427490 
	C140.755310,279.694977 141.900085,276.564178 143.084244,273.186066 
	C144.681763,268.628784 145.269043,262.601959 148.521225,260.055267 
	C151.741898,257.533203 157.734070,258.550385 163.502960,258.015137 
M260.651215,246.531357 
	C269.826935,255.932159 279.097321,265.243408 288.122223,274.786835 
	C290.926941,277.752716 293.742279,278.985229 298.344757,277.363800 
	C287.149200,265.746979 276.280121,254.468933 264.084045,241.814011 
	C275.078918,230.830658 285.530304,220.390182 295.981720,209.949707 
	C293.029541,210.584244 289.832520,211.477844 287.698639,213.495728 
	C279.600128,221.154068 271.853668,229.184204 263.953156,237.052872 
	C262.869720,238.131958 261.660339,239.084549 259.316010,241.143890 
	C259.316010,229.875610 259.316010,220.180756 259.316010,210.178040 
	C257.151489,210.278473 255.734558,210.344208 254.148178,210.417816 
	C254.148178,233.101151 254.148178,255.450043 254.148178,277.833435 
	C256.012146,277.833435 257.465668,277.833435 259.913788,277.833435 
	C259.913788,267.326233 259.913788,257.061676 260.651215,246.531357 
M219.078247,272.838348 
	C211.098862,271.046021 206.424438,265.891083 205.825012,257.954376 
	C205.163788,249.199356 204.750763,240.301208 205.564728,231.590164 
	C206.615662,220.342667 212.233429,215.625336 223.658646,214.888031 
	C229.071075,214.538742 234.524719,214.828064 240.012360,214.828064 
	C241.473145,211.987549 240.593430,210.289413 237.410568,210.221710 
	C230.776581,210.080582 224.076874,209.556870 217.517258,210.254120 
	C208.953415,211.164429 203.077469,216.242569 200.994827,224.745270 
	C197.816452,237.721512 197.780624,250.828659 201.051849,263.791534 
	C203.077805,271.819824 208.571320,276.981842 216.762405,277.880676 
	C223.633667,278.634644 230.658951,278.097870 237.611984,277.946320 
	C241.120316,277.869904 241.315002,275.880707 239.657211,272.988373 
	C233.136414,272.988373 226.517792,272.988373 219.078247,272.838348 
z"/>
<path fill="#000000" opacity="1.000000" stroke="none" 
	d="
M371.000000,100.531342 
	C370.785126,101.190071 370.570221,101.380127 370.355316,101.570175 
	C365.109924,92.085281 355.172241,88.848434 346.552216,84.006935 
	C327.339539,73.216011 307.918701,62.796165 288.600677,52.192322 
	C265.456665,39.488361 242.315521,26.778967 219.207291,14.010144 
	C211.860489,9.950555 204.622818,5.693455 197.667603,1.263370 
	C255.574112,1.000000 313.148224,1.000000 371.000000,1.000000 
	C371.000000,34.020374 371.000000,67.041527 371.000000,100.531342 
z"/>
<path fill="#000000" opacity="1.000000" stroke="none" 
	d="
M198.468658,401.000000 
	C199.010178,399.998810 199.856262,398.697510 201.055389,398.041840 
	C216.550293,389.569061 232.148987,381.285370 247.615784,372.762146 
	C272.726471,358.924469 297.773071,344.970184 322.819061,331.015411 
	C336.403473,323.446655 350.028870,315.940948 363.405670,308.018341 
	C366.276581,306.318024 368.154938,302.941833 370.745270,300.668823 
	C371.000000,334.279846 371.000000,367.559692 371.000000,401.000000 
	C313.645874,401.000000 256.291595,401.000000 198.468658,401.000000 
z"/>
<path fill="#000000" opacity="1.000000" stroke="none" 
	d="
M173.531342,0.999998 
	C173.721893,1.649160 173.626892,2.629855 173.139053,2.899286 
	C158.670975,10.890080 144.145355,18.776615 129.667328,26.749537 
	C107.251076,39.093964 84.874191,51.509892 62.459076,63.856380 
	C48.407501,71.596138 34.384922,79.393295 20.214489,86.910507 
	C13.035507,90.718849 5.845237,94.330322 1.254673,101.331223 
	C1.000000,67.720154 1.000000,34.440308 1.000000,1.000000 
	C58.354130,1.000000 115.708405,1.000000 173.531342,0.999998 
z"/>
<path fill="#000000" opacity="1.000000" stroke="none" 
	d="
M0.999999,301.468658 
	C1.352546,300.903656 1.979109,300.658752 2.018822,300.732025 
	C7.484995,310.814819 18.194822,313.789307 27.163446,318.920837 
	C49.095058,331.469269 71.271416,343.592255 93.412697,355.771149 
	C108.885414,364.282013 124.500046,372.534729 139.981384,381.030151 
	C151.600189,387.405975 163.107788,393.984497 174.332458,400.736389 
	C116.425880,401.000000 58.851761,401.000000 1.000000,401.000000 
	C1.000000,367.979614 1.000000,334.958466 0.999999,301.468658 
z"/>
<path fill="#FCFEFF" opacity="1.000000" stroke="none" 
	d="
M254.231979,158.027115 
	C254.232056,171.148819 254.232056,183.775726 254.232056,196.808701 
	C249.774353,196.808701 245.730240,196.808701 241.234146,196.808701 
	C241.142059,195.146759 240.976959,193.538803 240.975464,191.930679 
	C240.958099,173.285080 240.953003,154.639450 240.974609,135.993866 
	C240.980331,131.065552 241.057037,126.024117 246.843689,124.018776 
	C252.141235,122.182938 257.630402,124.461464 261.000702,130.623230 
	C268.346832,144.053757 275.274719,157.712906 282.388336,171.270874 
	C283.123962,172.672928 283.959351,174.022629 285.653015,175.160126 
	C285.653015,158.468491 285.653015,141.776855 285.653015,124.639801 
	C290.191681,124.639801 294.224640,124.639801 298.688385,124.639801 
	C298.811920,126.042038 299.045807,127.471764 299.047546,128.901764 
	C299.070526,147.880310 299.078949,166.858932 299.050232,185.837463 
	C299.039398,193.007217 297.222015,196.439468 292.954559,197.677994 
	C287.743134,199.190491 282.394012,197.073456 279.187622,191.178406 
	C271.873291,177.730835 264.966797,164.061569 257.884399,150.487686 
	C257.059357,148.906464 256.170258,147.358704 254.231903,145.923203 
	C254.231903,149.792908 254.231903,153.662613 254.231979,158.027115 
z"/>
<path fill="#FCFEFF" opacity="1.000000" stroke="none" 
	d="
M103.930008,126.483299 
	C117.688881,122.877159 131.398926,121.819725 144.821930,126.212662 
	C148.387009,127.379402 152.109253,130.739609 153.912354,134.087463 
	C158.338028,142.304626 158.272415,151.325378 153.700165,159.451370 
	C151.568680,163.239563 147.271774,165.809341 143.517197,169.344955 
	C148.323944,177.794006 153.554047,186.987167 159.335037,197.148682 
	C153.542664,197.148682 148.649963,197.360718 143.800507,196.996704 
	C142.616776,196.907852 141.269699,195.103836 140.519928,193.790344 
	C137.055084,187.720490 133.301544,181.747437 130.568207,175.348145 
	C128.104752,169.580750 124.200027,168.979050 118.496185,170.145386 
	C118.496185,178.864395 118.496185,187.617020 118.496185,196.787048 
	C113.414436,196.787048 108.884277,196.787048 103.766685,196.787048 
	C103.766685,173.397766 103.766685,150.154572 103.930008,126.483299 
M141.792191,149.792206 
	C142.622513,139.435989 139.792953,135.749786 130.520584,135.108139 
	C118.299339,134.262466 118.299347,134.262466 118.299332,146.579880 
	C118.299316,159.054230 118.301155,159.073929 130.907883,157.891678 
	C135.788239,157.433990 140.052399,155.979874 141.792191,149.792206 
z"/>
<path fill="#FBFEFF" opacity="1.000000" stroke="none" 
	d="
M168.838806,152.903198 
	C170.389374,130.068375 179.871750,121.885811 202.166809,123.708992 
	C216.840759,124.908951 224.531845,131.217926 225.780792,145.770248 
	C226.750504,157.069061 226.278137,168.665543 224.898849,179.940353 
	C223.662369,190.047882 216.582306,196.013626 206.331848,197.294830 
	C201.580444,197.888718 196.685089,198.131653 191.926727,197.714767 
	C179.122818,196.593018 172.070618,190.424835 170.104614,177.693741 
	C168.871109,169.706039 169.191772,161.478348 168.838806,152.903198 
M211.665634,171.890808 
	C211.491135,163.434845 211.817917,154.929596 210.992813,146.537598 
	C210.255173,139.035355 205.985626,135.953934 198.457748,135.795685 
	C190.142227,135.620911 185.382019,138.494324 184.709885,146.250946 
	C183.869553,155.948196 183.974411,165.825272 184.774734,175.533752 
	C185.347412,182.480408 189.760071,185.455750 196.740097,185.816437 
	C205.756393,186.282379 209.744797,182.762115 211.665634,171.890808 
z"/>
<path fill="#F9FDFF" opacity="1.000000" stroke="none" 
	d="
M85.544861,124.220261 
	C86.605446,125.255295 87.741241,126.260498 87.744949,127.269859 
	C87.828064,149.915298 87.789352,172.561218 87.750145,195.207001 
	C87.749352,195.667267 87.469063,196.127060 87.218933,196.894669 
	C82.683266,196.894669 78.125954,196.894669 73.235962,196.894669 
	C73.235962,172.767288 73.235962,148.870407 73.235962,124.192360 
	C77.234947,124.192360 81.163849,124.192360 85.544861,124.220261 
z"/>
<path fill="#F0FBFF" opacity="1.000000" stroke="none" 
	d="
M120.840416,278.065613 
	C117.243881,278.540802 116.925415,276.658997 116.945534,274.170380 
	C117.019363,265.036713 116.974800,255.902054 116.974800,246.340393 
	C104.248077,246.340393 91.890419,246.340393 78.842529,246.340393 
	C78.842529,256.758148 78.842529,267.144379 78.842529,277.805817 
	C76.597229,277.805817 75.037048,277.805817 73.176682,277.805817 
	C73.176682,255.320572 73.176682,233.094666 73.176682,210.408447 
	C74.886848,210.324188 76.445862,210.247391 78.698326,210.136414 
	C78.698326,220.446564 78.698326,230.343079 78.698326,240.538589 
	C91.609131,240.538589 103.851433,240.538589 116.765213,240.538589 
	C116.765213,230.634979 116.765213,220.758804 116.765213,210.455582 
	C118.964844,210.331787 120.523689,210.244064 122.577629,210.128479 
	C122.683197,212.135529 122.840157,213.745850 122.841591,215.356308 
	C122.858650,234.499161 122.893112,253.642273 122.784378,272.784515 
	C122.774437,274.534424 121.808685,276.278870 120.840416,278.065613 
z"/>
<path fill="#F2FBFF" opacity="1.000000" stroke="none" 
	d="
M163.006790,258.015167 
	C157.734070,258.550385 151.741898,257.533203 148.521225,260.055267 
	C145.269043,262.601959 144.681763,268.628784 143.084244,273.186066 
	C141.900085,276.564178 140.755310,279.694977 135.927322,277.427490 
	C136.190689,276.378235 136.356140,275.247955 136.753372,274.206024 
	C144.348862,254.284119 151.971527,234.372574 159.589371,214.459167 
	C159.767960,213.992371 159.827133,213.380478 160.162094,213.090210 
	C161.569977,211.870163 162.992310,209.976715 164.544952,209.837051 
	C165.739456,209.729599 167.682037,211.623062 168.341415,213.062256 
	C170.349060,217.444290 171.910126,222.032028 173.620392,226.549011 
	C179.400604,241.815063 185.174194,257.083649 190.938202,272.355804 
	C191.572067,274.035309 192.127792,275.744324 192.736771,277.488342 
	C188.718079,278.976990 186.444016,277.986389 185.293854,274.056396 
	C184.267242,270.548523 182.435562,267.257477 181.590439,263.719910 
	C180.436356,258.889160 177.676331,257.414490 172.993423,257.947540 
	C169.867874,258.303345 166.669006,258.015137 163.006790,258.015167 
M154.974792,241.520798 
	C153.652252,245.196945 152.329712,248.873093 150.932739,252.756134 
	C159.967697,252.756134 168.333527,252.756134 177.366058,252.756134 
	C173.017654,241.114349 168.883316,230.045670 164.748978,218.976990 
	C164.326202,218.998520 163.903427,219.020035 163.480652,219.041565 
	C160.728638,226.289276 157.976624,233.536987 154.974792,241.520798 
z"/>
<path fill="#F7FDFF" opacity="1.000000" stroke="none" 
	d="
M260.282501,246.664246 
	C259.913788,257.061676 259.913788,267.326233 259.913788,277.833435 
	C257.465668,277.833435 256.012146,277.833435 254.148178,277.833435 
	C254.148178,255.450043 254.148178,233.101151 254.148178,210.417816 
	C255.734558,210.344208 257.151489,210.278473 259.316010,210.178040 
	C259.316010,220.180756 259.316010,229.875610 259.316010,241.143890 
	C261.660339,239.084549 262.869720,238.131958 263.953156,237.052872 
	C271.853668,229.184204 279.600128,221.154068 287.698639,213.495728 
	C289.832520,211.477844 293.029541,210.584244 295.981720,209.949707 
	C285.530304,220.390182 275.078918,230.830658 264.084045,241.814011 
	C276.280121,254.468933 287.149200,265.746979 298.344757,277.363800 
	C293.742279,278.985229 290.926941,277.752716 288.122223,274.786835 
	C279.097321,265.243408 269.826935,255.932159 260.282501,246.664246 
z"/>
<path fill="#F2FBFF" opacity="1.000000" stroke="none" 
	d="
M219.488708,272.913361 
	C226.517792,272.988373 233.136414,272.988373 239.657211,272.988373 
	C241.315002,275.880707 241.120316,277.869904 237.611984,277.946320 
	C230.658951,278.097870 223.633667,278.634644 216.762405,277.880676 
	C208.571320,276.981842 203.077805,271.819824 201.051849,263.791534 
	C197.780624,250.828659 197.816452,237.721512 200.994827,224.745270 
	C203.077469,216.242569 208.953415,211.164429 217.517258,210.254120 
	C224.076874,209.556870 230.776581,210.080582 237.410568,210.221710 
	C240.593430,210.289413 241.473145,211.987549 240.012360,214.828064 
	C234.524719,214.828064 229.071075,214.538742 223.658646,214.888031 
	C212.233429,215.625336 206.615662,220.342667 205.564728,231.590164 
	C204.750763,240.301208 205.163788,249.199356 205.825012,257.954376 
	C206.424438,265.891083 211.098862,271.046021 219.488708,272.913361 
z"/>
<path fill="#3AC5FF" opacity="1.000000" stroke="none" 
	d="
M141.691376,150.190186 
	C140.052399,155.979874 135.788239,157.433990 130.907883,157.891678 
	C118.301155,159.073929 118.299316,159.054230 118.299332,146.579880 
	C118.299347,134.262466 118.299339,134.262466 130.520584,135.108139 
	C139.792953,135.749786 142.622513,139.435989 141.691376,150.190186 
z"/>
<path fill="#35C4FF" opacity="1.000000" stroke="none" 
	d="
M211.599747,172.324951 
	C209.744797,182.762115 205.756393,186.282379 196.740097,185.816437 
	C189.760071,185.455750 185.347412,182.480408 184.774734,175.533752 
	C183.974411,165.825272 183.869553,155.948196 184.709885,146.250946 
	C185.382019,138.494324 190.142227,135.620911 198.457748,135.795685 
	C205.985626,135.953934 210.255173,139.035355 210.992813,146.537598 
	C211.817917,154.929596 211.491135,163.434845 211.599747,172.324951 
z"/>
<path fill="#37C4FF" opacity="1.000000" stroke="none" 
	d="
M155.099701,241.152756 
	C157.976624,233.536987 160.728638,226.289276 163.480652,219.041565 
	C163.903427,219.020035 164.326202,218.998520 164.748978,218.976990 
	C168.883316,230.045670 173.017654,241.114349 177.366058,252.756134 
	C168.333527,252.756134 159.967697,252.756134 150.932739,252.756134 
	C152.329712,248.873093 153.652252,245.196945 155.099701,241.152756 
z"/>
</svg>